<svg width="30" height="24" viewBox="0 0 30 24" fill="none" xmlns="http://www.w3.org/2000/svg">
<path d="M0 12V18C0 18.8297 0.670312 19.5 1.5 19.5H3V10.5H1.5C0.670312 10.5 0 11.1703 0 12ZM21.75 4.5H16.5V1.5C16.5 0.670312 15.8297 0 15 0C14.1703 0 13.5 0.670312 13.5 1.5V4.5H8.25C6.17812 4.5 4.5 6.17812 4.5 8.25V21C4.5 22.6547 5.84531 24 7.5 24H22.5C24.1547 24 25.5 22.6547 25.5 21V8.25C25.5 6.17812 23.8219 4.5 21.75 4.5ZM12 19.5H9V18H12V19.5ZM10.5 13.875C9.46406 13.875 8.625 13.0359 8.625 12C8.625 10.9641 9.46406 10.125 10.5 10.125C11.5359 10.125 12.375 10.9641 12.375 12C12.375 13.0359 11.5359 13.875 10.5 13.875ZM16.5 19.5H13.5V18H16.5V19.5ZM21 19.5H18V18H21V19.5ZM19.5 13.875C18.4641 13.875 17.625 13.0359 17.625 12C17.625 10.9641 18.4641 10.125 19.5 10.125C20.5359 10.125 21.375 10.9641 21.375 12C21.375 13.0359 20.5359 13.875 19.5 13.875ZM28.5 10.5H27V19.5H28.5C29.3297 19.5 30 18.8297 30 18V12C30 11.1703 29.3297 10.5 28.5 10.5Z" fill="white"/>
</svg>
