<svg width="48" height="48" viewBox="0 0 48 48" fill="none" xmlns="http://www.w3.org/2000/svg">
<g clip-path="url(#clip0_296_167)">
<mask id="mask0_296_167" style="mask-type:luminance" maskUnits="userSpaceOnUse" x="0" y="0" width="48" height="48">
<path d="M0 0H47.5V47.5H0V0Z" fill="white"/>
</mask>
<g mask="url(#mask0_296_167)">
<path d="M1.25 37.5C1.25 38.8261 1.77678 40.0979 2.71447 41.0355C3.65215 41.9732 4.92392 42.5 6.25 42.5H36.25C37.5761 42.5 38.8479 41.9732 39.7855 41.0355C40.7232 40.0979 41.25 38.8261 41.25 37.5V16.25C41.25 14.9239 40.7232 13.6521 39.7855 12.7145C38.8479 11.7768 37.5761 11.25 36.25 11.25H25C20.5475 11.25 21.25 5 14.4537 5H6.25C4.92392 5 3.65215 5.52679 2.71447 6.46447C1.77678 7.40215 1.25 8.67392 1.25 10V37.5Z" fill="#226699"/>
<path d="M41.67 16.25H33.4675C26.67 16.25 26.7387 22.5 22.285 22.5H11.035C8.27375 22.5 5.80875 24.7388 5.5275 27.5L4.9125 32.3425L4.2575 37.5L4.2325 37.4975C4.08875 38.255 3.3925 38.7463 2.6075 38.7463C1.80375 38.7463 1.225 38.1125 1.265 37.3175C1.2625 37.3788 1.25 37.4375 1.25 37.5C1.25188 38.6935 1.68179 39.8468 2.46165 40.7502C3.24151 41.6537 4.31957 42.2475 5.5 42.4238C5.74655 42.4759 5.99799 42.5015 6.25 42.5H38.75C41.5112 42.5 43.9775 40.2613 44.2575 37.5L46.1625 21.25C46.4425 18.4888 44.4312 16.25 41.67 16.25Z" fill="#55ACEE"/>
</g>
</g>
<defs>
<clipPath id="clip0_296_167">
<rect width="47.5" height="47.5" fill="white"/>
</clipPath>
</defs>
</svg>
