<svg width="30" height="30" viewBox="0 0 30 30" fill="none" xmlns="http://www.w3.org/2000/svg">
<path d="M24.6429 16.6072V24.6429C24.6429 24.933 24.5369 25.1842 24.3248 25.3962C24.1128 25.6083 23.8616 25.7143 23.5715 25.7143H17.1429V19.2857H12.8572V25.7143H6.42862C6.13844 25.7143 5.88732 25.6083 5.67527 25.3962C5.46322 25.1842 5.35719 24.933 5.35719 24.6429V16.6072C5.35719 16.596 5.35998 16.5792 5.36556 16.5569C5.37114 16.5346 5.37393 16.5179 5.37393 16.5067L15 8.57144L24.6262 16.5067C24.6373 16.529 24.6429 16.5625 24.6429 16.6072ZM28.3762 15.452L27.3382 16.6909C27.2489 16.7913 27.1317 16.8527 26.9866 16.875H26.9364C26.7913 16.875 26.6741 16.8359 26.5849 16.7578L15 7.09823L3.41522 16.7578C3.2813 16.8471 3.14737 16.8862 3.01344 16.875C2.86835 16.8527 2.75116 16.7913 2.66188 16.6909L1.62393 15.452C1.53464 15.3404 1.49558 15.2093 1.50674 15.0586C1.5179 14.9079 1.57929 14.788 1.69089 14.6987L13.7277 4.67077C14.0849 4.38059 14.509 4.2355 15 4.2355C15.4911 4.2355 15.9152 4.38059 16.2724 4.67077L20.3572 8.08595V4.82144C20.3572 4.66519 20.4074 4.53684 20.5079 4.4364C20.6083 4.33595 20.7366 4.28573 20.8929 4.28573H24.1072C24.2634 4.28573 24.3918 4.33595 24.4922 4.4364C24.5927 4.53684 24.6429 4.66519 24.6429 4.82144V11.6518L28.3092 14.6987C28.4208 14.788 28.4822 14.9079 28.4933 15.0586C28.5045 15.2093 28.4654 15.3404 28.3762 15.452Z" fill="white"/>
</svg>
