<svg width="47" height="47" viewBox="0 0 47 47" fill="none" xmlns="http://www.w3.org/2000/svg">
<path fill-rule="evenodd" clip-rule="evenodd" d="M30.3817 22.6187L29.1225 23.878C28.9404 24.0598 28.796 24.2758 28.6974 24.5135C28.5989 24.7513 28.5481 25.0061 28.5481 25.2635C28.5481 25.5208 28.5989 25.7757 28.6974 26.0134C28.796 26.2511 28.9404 26.4671 29.1225 26.649L29.8784 27.403C30.2457 27.7701 30.7437 27.9763 31.263 27.9763C31.7822 27.9763 32.2803 27.7701 32.6475 27.403L33.9067 26.1418L37.4317 29.6668C39.5413 27.5568 40.9052 24.8163 41.3166 21.8611C41.728 18.9059 41.1643 15.8971 39.7112 13.2912L43.9765 9.02399C44.3436 8.65675 44.5498 8.15873 44.5498 7.63945C44.5498 7.12017 44.3436 6.62215 43.9765 6.25491L41.458 3.73454C41.0908 3.36741 40.5928 3.16116 40.0735 3.16116C39.5542 3.16116 39.0562 3.36741 38.689 3.73454L34.4237 8.00175C31.8173 6.54766 28.8078 5.98351 25.8517 6.39489C22.8957 6.80628 20.1545 8.17075 18.0442 10.2812L21.5692 13.8062L20.308 15.0655C19.9409 15.4327 19.7347 15.9307 19.7347 16.45C19.7347 16.9693 19.9409 17.4673 20.308 17.8345L21.064 18.5885C21.4312 18.9556 21.9292 19.1619 22.4485 19.1619C22.9678 19.1619 23.4658 18.9556 23.833 18.5885L25.0922 17.3293L30.3837 22.6168L30.3817 22.6187ZM9.59596 32.8295L5.32679 37.0947C4.95966 37.462 4.75342 37.96 4.75342 38.4793C4.75342 38.9986 4.95966 39.4966 5.32679 39.8638L7.84521 42.3822C8.21245 42.7494 8.71047 42.9556 9.22975 42.9556C9.74903 42.9556 10.247 42.7494 10.6143 42.3822L14.8795 38.117C17.4859 39.5711 20.4955 40.1352 23.4515 39.7238C26.4076 39.3125 29.1487 37.948 31.259 35.8375L11.8715 16.45C9.76123 18.5609 8.39722 21.3026 7.98653 24.2591C7.57584 27.2156 8.14091 30.2233 9.59596 32.8295Z" stroke="#4A4A4A"/>
</svg>
