<svg width="48" height="48" viewBox="0 0 48 48" fill="none" xmlns="http://www.w3.org/2000/svg">
<path d="M31.6399 27.72C29.3696 29.2076 26.7143 30.0001 23.9999 30.0001C21.2856 30.0001 18.6303 29.2076 16.3599 27.72C13.4323 29.0963 10.9297 31.2362 9.11543 33.9146C7.30113 36.5929 6.24216 39.7107 6.04992 42.94C6.0411 43.0768 6.06052 43.214 6.10696 43.3431C6.15341 43.4721 6.2259 43.5902 6.31992 43.69C6.41403 43.7887 6.52734 43.8672 6.65288 43.9205C6.77842 43.9738 6.91354 44.0008 7.04992 44H40.9999C41.1363 44.0008 41.2714 43.9738 41.397 43.9205C41.5225 43.8672 41.6358 43.7887 41.7299 43.69C41.8239 43.5902 41.8964 43.4721 41.9429 43.3431C41.9893 43.214 42.0087 43.0768 41.9999 42.94C41.803 39.7054 40.7366 36.584 38.9131 33.9052C37.0897 31.2264 34.5769 29.0894 31.6399 27.72Z" fill="#42C3CF"/>
<path d="M24 28C30.6274 28 36 22.6274 36 16C36 9.37258 30.6274 4 24 4C17.3726 4 12 9.37258 12 16C12 22.6274 17.3726 28 24 28Z" fill="#42C3CF"/>
</svg>
